<svg version="1.1" id="Layer_1" xmlns="http://www.w3.org/2000/svg" xmlns:xlink="http://www.w3.org/1999/xlink" x="0px" y="0px"
	 width="100%" viewBox="0 0 512 455" enable-background="new 0 0 512 455" xml:space="preserve">
<path fill="#020913" opacity="1.000000" stroke="none" 
	d="
M309.000000,456.000000 
	C207.333359,456.000000 106.166695,455.977783 5.000184,456.095520 
	C1.576242,456.099518 0.902637,455.423889 0.905164,452.000000 
	C1.015141,303.000092 1.015140,154.000122 0.905198,5.000251 
	C0.902672,1.576885 1.575816,0.903116 4.999878,0.905319 
	C172.999756,1.013448 340.999725,1.013435 508.999634,0.905386 
	C512.422668,0.903184 513.097412,1.575379 513.094910,4.999765 
	C512.984863,153.999649 512.984924,302.999634 513.094849,451.999542 
	C513.097351,455.422363 512.425720,456.103333 509.000244,456.096588 
	C442.500336,455.966278 376.000153,456.000000 309.000000,456.000000 
z"/>
<path fill="#1057BA" opacity="1.000000" stroke="none" 
	d="
M310.208862,70.262474 
	C332.388702,67.513092 353.425446,62.168983 374.045074,54.714970 
	C389.341003,49.185486 403.430237,52.183273 414.602112,64.491814 
	C423.639221,74.448380 424.896149,86.543854 422.269989,99.192871 
	C419.370483,113.158371 412.502075,125.320068 404.351868,136.815002 
	C402.846405,138.938248 401.695648,140.660065 403.042328,143.539398 
	C419.982452,179.758804 422.791473,217.277313 411.806610,255.551666 
	C397.816101,304.298584 371.320343,345.173737 331.938019,377.297607 
	C312.590179,393.079498 290.919189,404.554230 266.082367,409.305298 
	C258.180450,410.816864 250.206024,411.427063 242.212662,410.920654 
	C222.438126,409.667908 209.810715,388.115784 217.570114,368.578766 
	C219.120316,364.675598 217.949463,363.998413 214.640274,362.902344 
	C154.252594,342.900055 117.063866,301.797913 104.308090,239.477005 
	C97.596863,206.687881 102.456604,174.853027 116.531555,144.506226 
	C117.857132,141.648178 117.532082,139.691833 115.810356,137.282669 
	C108.509262,127.066505 102.297913,116.245636 98.782265,104.093636 
	C96.298508,95.508438 95.284134,86.861404 97.920494,78.029182 
	C103.961006,57.792587 124.548759,47.228577 145.280869,54.464775 
	C160.559341,59.797474 175.891693,64.726685 191.849106,67.577164 
	C222.997498,73.141212 254.357239,74.335815 285.892609,72.406929 
	C293.871979,71.918869 301.846985,71.488297 310.208862,70.262474 
z"/>
<path fill="#030B16" opacity="1.000000" stroke="none" 
	d="
M373.136780,73.138412 
	C377.621704,71.694450 381.585266,70.020699 385.995850,69.612038 
	C396.445526,68.643852 405.319885,76.119781 406.054626,86.654114 
	C406.735626,96.418289 402.939240,104.938179 398.695892,113.278053 
	C394.987518,120.566505 390.539917,127.447655 385.078369,133.559708 
	C382.034882,136.965668 381.568970,139.788773 383.938446,144.110962 
	C396.652679,167.303268 402.255402,192.294861 400.788361,218.674759 
	C399.542694,241.073822 393.097809,262.252533 383.685913,282.491486 
	C370.690430,310.436340 353.291931,335.321259 330.385498,356.072906 
	C312.648804,372.141144 292.820374,384.754028 269.341187,390.879028 
	C261.881256,392.825104 254.260345,393.733826 246.617294,393.887726 
	C235.108276,394.119415 228.719788,382.921967 234.574326,372.909790 
	C237.770889,367.443207 241.101944,362.077881 243.682755,356.273163 
	C245.200623,352.859192 244.755447,351.568695 240.569305,350.898071 
	C191.790359,343.083527 155.234619,317.504639 133.401993,273.198425 
	C112.363235,230.503265 113.903870,187.233139 135.623016,144.902512 
	C138.085037,140.104034 137.780228,137.124115 134.441254,133.081772 
	C125.363182,122.091354 117.710846,110.134117 114.566002,95.982246 
	C112.591400,87.096535 113.287880,78.610123 121.657623,72.703690 
	C127.864380,68.323639 134.574005,68.797478 141.212540,71.246109 
	C159.384491,77.948883 177.968475,82.882141 197.100647,86.077301 
	C224.214340,90.605431 251.501038,90.544167 278.806946,90.002426 
	C310.971771,89.364288 342.422333,84.343948 373.136780,73.138412 
z"/>
<path fill="#FCFCFC" opacity="1.000000" stroke="none" 
	d="
M273.353760,354.289246 
	C273.697021,349.097992 274.429932,344.154602 273.876984,339.136719 
	C272.868561,329.985535 267.578003,325.125854 258.364502,324.910370 
	C193.339020,323.389709 143.632095,270.604492 146.331543,205.936676 
	C146.414627,203.946472 146.362518,201.930878 147.352585,199.888977 
	C148.946747,202.164902 148.987259,204.820404 149.738190,207.215637 
	C159.728241,239.080719 192.570404,257.876190 225.091858,250.087799 
	C228.493851,249.273041 230.118668,249.924423 231.777451,252.965851 
	C236.722565,262.032806 241.963791,270.940125 247.176468,279.858887 
	C253.790344,291.175018 265.917664,291.267578 272.538452,280.028809 
	C277.950500,270.841766 283.303528,261.616882 288.479950,252.296158 
	C289.867889,249.797012 291.222198,249.297455 294.009369,249.928680 
	C317.693909,255.292801 338.135315,249.253250 355.596313,231.937134 
	C359.562073,232.974548 358.108368,235.769775 357.656860,237.923431 
	C355.496613,248.227524 352.178833,258.197723 347.941833,267.814240 
	C334.494019,298.336182 315.313812,324.609955 289.451447,345.841461 
	C285.970551,348.699097 282.076813,350.986389 278.307068,353.437073 
	C276.907990,354.346558 275.445007,355.219025 273.353760,354.289246 
z"/>
<path fill="#B4CEF4" opacity="1.000000" stroke="none" 
	d="
M345.086304,191.592056 
	C344.106842,209.791870 328.888123,224.045792 310.178741,224.590210 
	C291.718201,225.127380 275.820099,211.137054 274.042480,192.368835 
	C275.276672,174.232422 291.718231,162.602325 307.692413,161.808105 
	C320.701111,161.161362 338.460785,168.205307 344.220245,185.862457 
	C344.805725,187.657318 344.869171,189.426437 345.086304,191.592056 
z"/>
<path fill="#B3CDF3" opacity="1.000000" stroke="none" 
	d="
M245.663727,191.690811 
	C244.828934,209.788742 229.411865,224.132126 210.835785,224.587006 
	C192.667526,225.031891 177.046173,211.598953 174.874695,193.266113 
	C174.216187,184.281281 178.660599,177.824524 184.279877,172.349731 
	C201.381958,155.687469 229.926422,159.574051 242.357056,179.971222 
	C244.486893,183.466034 245.445480,187.265671 245.663727,191.690811 
z"/>
<path fill="#B3CDF2" opacity="1.000000" stroke="none" 
	d="
M272.884766,354.358582 
	C278.955780,352.780670 283.482666,348.861267 287.849579,345.301056 
	C315.812073,322.503723 336.200317,294.094269 349.361298,260.492035 
	C352.331177,252.909454 354.575897,245.120178 356.461609,237.211533 
	C356.850006,235.582581 357.393219,234.008514 356.190430,232.119110 
	C364.210175,222.817566 369.409973,212.189697 372.153198,199.800491 
	C374.090424,205.887863 374.687439,214.533325 372.580292,225.647934 
	C362.242950,280.173981 334.603668,323.396606 287.760651,353.787720 
	C282.811340,356.998810 277.494507,359.715668 271.170135,361.357574 
	C271.762024,358.782532 272.234833,356.725464 272.884766,354.358582 
z"/>
<path fill="#175BBA" opacity="1.000000" stroke="none" 
	d="
M245.934357,191.618088 
	C242.841415,181.352585 237.172546,172.655457 227.077408,167.424667 
	C205.429276,156.207764 180.467926,168.142532 175.003067,192.511703 
	C172.009003,179.833359 180.252502,163.665909 193.030380,157.051407 
	C218.590591,143.820068 248.018219,162.780106 245.934357,191.618088 
z"/>
<path fill="#165BBB" opacity="1.000000" stroke="none" 
	d="
M345.217102,191.669678 
	C341.966553,180.924469 336.197205,171.941162 325.459473,166.987350 
	C303.551758,156.880264 280.548859,167.954468 274.276245,191.682220 
	C272.110260,170.455765 287.681274,153.060226 309.001587,152.903900 
	C330.499481,152.746277 346.907043,170.066772 345.217102,191.669678 
z"/>
<path fill="#1056B7" opacity="1.000000" stroke="none" 
	d="
M350.149658,107.172897 
	C358.638885,104.082397 366.756897,101.111664 374.874390,98.139503 
	C376.414185,97.575729 378.056213,96.536552 379.417114,98.276855 
	C380.668152,99.876732 379.851013,101.462059 378.857117,102.859840 
	C374.521423,108.957390 370.088684,114.987030 365.826080,121.134850 
	C364.424774,123.155945 362.630981,123.430107 360.597351,122.929344 
	C353.337555,121.141632 346.100342,119.261620 338.858856,117.400116 
	C337.362946,117.015579 335.942993,116.491722 335.875366,114.580490 
	C335.809875,112.728745 337.075043,111.967590 338.544006,111.421898 
	C342.283997,110.032570 346.032898,108.667168 350.149658,107.172897 
z"/>
<path fill="#1056B7" opacity="1.000000" stroke="none" 
	d="
M152.371521,118.736969 
	C148.569016,113.453812 144.972168,108.478851 141.443039,103.456299 
	C140.404373,101.978104 139.119705,100.349503 140.406815,98.468506 
	C141.870667,96.329239 143.772980,97.774040 145.343872,98.336273 
	C157.058105,102.528931 168.737839,106.818169 180.421860,111.094963 
	C182.112808,111.713913 184.157333,112.142197 183.945251,114.584328 
	C183.742645,116.917503 181.681610,117.276611 179.961914,117.722641 
	C173.863159,119.304428 167.653076,120.508842 161.645859,122.373817 
	C157.464859,123.671837 154.557266,123.021065 152.371521,118.736969 
z"/>
<path fill="#EAEAEB" opacity="1.000000" stroke="none" 
	d="
M266.048218,234.676422 
	C265.846680,238.978867 262.849609,241.697418 261.227448,245.089737 
	C260.265808,247.100723 259.261353,246.308426 258.437012,244.887619 
	C257.101715,242.586227 255.789337,240.271530 254.455002,237.969574 
	C251.680771,233.183502 256.759125,232.071045 258.629822,229.740860 
	C260.884094,226.932877 261.668457,230.732132 263.055603,231.594528 
	C264.154297,232.277618 264.957397,233.436111 266.048218,234.676422 
z"/>
<path fill="#0B131E" opacity="1.000000" stroke="none" 
	d="
M306.642761,174.711365 
	C313.306702,171.327866 321.824249,176.153900 324.288605,184.453430 
	C326.080109,190.487076 323.865479,197.124847 318.811768,200.868820 
	C313.513336,204.794128 306.527710,205.029572 301.054657,201.467331 
	C295.791107,198.041443 293.481842,192.333740 294.912079,185.530624 
	C299.293457,188.780258 303.893066,190.328430 307.821930,185.410675 
	C310.646912,181.874603 309.662140,178.253296 306.642761,174.711365 
z"/>
<path fill="#0C141F" opacity="1.000000" stroke="none" 
	d="
M198.366211,187.213928 
	C202.453506,189.324570 205.911804,188.803619 208.490570,185.511063 
	C211.582077,181.563843 210.112198,177.764679 206.786819,174.079514 
	C212.685791,172.028214 217.093765,174.081238 220.814392,177.531555 
	C225.315323,181.705505 226.636246,187.065155 224.962051,193.027039 
	C222.868073,200.483871 215.220245,205.157730 207.558868,203.733337 
	C199.856476,202.301285 194.508728,195.582764 194.936005,188.136169 
	C195.119400,184.939957 196.216965,185.225021 198.366211,187.213928 
z"/>
</svg>